<svg width="1264" height="343" viewBox="0 0 1264 343" fill="none" xmlns="http://www.w3.org/2000/svg">
<g clip-path="url(#clip0_7_3)">
<path d="M837.828 166.904H872.154C896.874 166.904 913.817 181.982 913.817 205.117C913.817 228.253 896.874 243.362 872.154 243.362H837.828V166.904ZM871.272 228.82C886.262 228.82 896.087 219.754 896.087 205.117C896.087 190.481 886.262 181.415 871.272 181.415H855.306V228.82H871.272Z" fill="white"/>
<path d="M923.988 166.904H941.466V243.362H923.988V166.904Z" fill="white"/>
<path d="M1007.44 203.921H1023.41V234.926C1015.09 241.253 1003.66 244.652 992.86 244.652C969.115 244.652 951.638 228.158 951.638 205.117C951.638 182.076 969.115 165.582 993.175 165.582C1006.43 165.582 1017.45 170.178 1024.79 178.802L1013.58 189.284C1008.07 183.398 1001.71 180.66 994.057 180.66C979.382 180.66 969.336 190.606 969.336 205.117C969.336 219.439 979.382 229.575 993.836 229.575C998.591 229.575 1003 228.693 1007.44 226.301V203.921Z" fill="white"/>
<path d="M1036.6 166.904H1054.08V243.362H1036.6V166.904Z" fill="white"/>
<path d="M1084.66 181.321H1060.47V166.904H1126.29V181.321H1102.1V243.362H1084.63V181.321H1084.66Z" fill="white"/>
<path d="M1178.69 226.962H1143.61L1136.93 243.33H1119.01L1152.68 166.873H1169.94L1203.73 243.33H1185.37L1178.69 226.962ZM1173.18 213.553L1161.21 184.279L1149.25 213.553H1173.18Z" fill="white"/>
<path d="M1208.64 166.904H1226.12V228.945H1264V243.362H1208.64V166.904Z" fill="white"/>
<path d="M837.576 102.313H858.297C872.343 102.313 882.01 110.277 882.01 123.308C882.01 136.34 872.343 144.303 858.297 144.303H837.576V102.313ZM857.668 133.255C863.62 133.255 867.682 129.729 867.682 123.308C867.682 116.887 863.588 113.361 857.668 113.361H851.716V133.286H857.668V133.255Z" fill="white"/>
<path d="M888.844 102.313H903.015V144.303H888.844V102.313Z" fill="white"/>
<path d="M909.723 141.25L914.289 130.925C918.257 133.255 923.547 134.766 928.145 134.766C932.176 134.766 933.593 133.916 933.593 132.499C933.593 127.211 910.352 131.492 910.352 115.817C910.352 108.01 916.903 101.652 929.909 101.652C935.546 101.652 941.371 102.848 945.749 105.303L941.497 115.565C937.341 113.456 933.467 112.448 929.783 112.448C925.626 112.448 924.335 113.645 924.335 115.093C924.335 120.129 947.575 115.942 947.575 131.429C947.575 139.11 941.025 145.594 928.019 145.594C920.997 145.562 913.942 143.831 909.723 141.25Z" fill="white"/>
<path d="M962.565 113.582H950.252V102.596H989.018V113.582H976.705V144.618H962.534V113.582H962.565Z" fill="white"/>
<path d="M996.135 102.596H1010.31V144.587H996.135V102.596Z" fill="white"/>
<path d="M1060.22 102.596V144.587H1048.57L1032.6 125.511V144.587H1018.81V102.596H1030.46L1046.43 121.671V102.596H1060.22Z" fill="white"/>
<path d="M1078.11 113.582H1065.79V102.596H1104.56V113.582H1092.25V144.618H1078.08V113.582H1078.11Z" fill="white"/>
<path d="M1110.48 102.596H1124.65V144.587H1110.48V102.596Z" fill="white"/>
<path d="M1178.03 102.596L1160.27 144.587H1146.35L1128.59 102.596H1143.83L1153.84 127.148L1164.11 102.596H1178.03V102.596Z" fill="white"/>
<path d="M1178.69 123.592C1178.69 110.875 1188.7 101.621 1202.4 101.621C1216.1 101.621 1226.12 110.875 1226.12 123.592C1226.12 136.308 1216.1 145.563 1202.4 145.563C1188.7 145.563 1178.69 136.308 1178.69 123.592ZM1211.82 123.592C1211.82 117.044 1207.63 113.078 1202.4 113.078C1197.18 113.078 1192.99 117.044 1192.99 123.592C1192.99 130.139 1197.18 134.105 1202.4 134.105C1207.63 134.105 1211.82 130.139 1211.82 123.592Z" fill="white"/>
<path d="M796.291 138.606L783.19 152.299C785.426 158.563 786.717 165.299 786.717 172.318C786.717 205.275 759.981 231.999 727.01 231.999C694.038 231.999 667.302 205.275 667.302 172.318C667.302 139.362 694.038 112.638 727.01 112.638C739.669 112.638 751.384 116.604 761.052 123.308L774.908 111.977C761.713 101.558 745.086 95.2939 726.978 95.2939C684.402 95.2939 649.919 129.793 649.919 172.318C649.919 214.844 684.433 249.342 726.978 249.342C769.555 249.342 804.038 214.844 804.038 172.318C804.069 160.231 801.266 148.805 796.291 138.606Z" fill="white"/>
<path d="M824.539 95.5459C785.616 114.873 751.133 141.723 723.042 174.238C722.853 174.522 722.727 174.711 722.727 174.711L722.696 174.648L703.801 145.248L679.049 162.403L724.365 214.372C724.365 214.372 724.554 214.088 724.869 213.585C744.425 176.536 770.972 143.737 802.747 116.95C803.692 116.1 804.605 115.219 805.55 114.401C809.801 110.938 813.58 108.042 816.698 105.713L819.815 103.541C821.957 101.967 824.129 100.425 826.334 98.8825L824.539 95.5459Z" fill="white"/>
<path d="M580.606 102.723H578.244V243.929H580.606V102.723Z" fill="white"/>
<path d="M9.13249 166.936C9.44741 165.205 9.76232 153.023 9.76232 147.955V129.667C9.76232 123.372 9.76232 112.921 8.84907 111.883C7.80986 110.655 3.24361 109.459 0 108.64L1.1022 103.573H15.9346C19.3987 103.573 30.4521 102.975 35.1444 102.975C52.5276 102.975 62.8882 110.907 62.8882 125.638C62.8882 141.471 52.0237 150.536 34.0422 150.536C29.6649 150.536 26.1063 150.222 22.9572 149.812C22.9572 155.919 22.9572 165.362 23.8704 166.464C25.0986 167.691 31.4914 168.604 35.9631 169.611L34.8609 174.679H1.1022L0 169.58L9.13249 166.936ZM44.3083 112.89C41.6631 111.253 37.9156 110.246 33.3179 110.246C29.9798 110.246 26.0119 110.749 23.4611 111.347C23.2721 113.771 22.9572 125.481 22.9572 130.139V141.502C26.1063 142.006 29.9798 142.415 32.814 142.415C36.8764 142.415 41.0332 141.817 43.899 140.495C46.5442 138.26 49.095 133.791 49.095 126.173C49.095 119.815 46.8591 115.534 44.3083 112.89Z" fill="white"/>
<path d="M79.1376 166.936C79.4525 165.204 79.736 153.023 79.736 147.955V129.667C79.736 123.371 79.736 113.11 78.9172 112.008C78.0039 110.781 73.3432 109.585 69.9736 108.672L71.0758 103.604H85.8138C89.3723 103.604 100.646 103.006 105.527 103.006C122.596 103.006 132.767 109.616 132.767 122.805C132.767 132.059 125.965 137.945 119.667 141.093C123.95 149.529 131.665 163.631 133.996 166.999L141.805 169.643L140.703 174.711C135.129 174.711 130.028 174.899 122.722 175.12C120.486 169.926 113.054 155.1 107.889 145.248H92.9623V148.585C92.9623 154.88 92.9623 165.141 93.7811 166.243C94.6944 167.471 99.3551 168.667 102.725 169.58L101.622 174.648H71.1388L70.0366 169.58L79.1376 166.936ZM92.9623 137.064L111.259 137.662C115.321 135.333 119.069 130.139 119.069 123.34C119.069 118.461 117.557 115.313 115.416 112.984C112.865 111.158 108.393 110.246 103.323 110.246C100.174 110.246 96.3004 110.749 93.5607 111.253C93.2457 113.299 92.9623 125.166 92.9623 130.233V137.064Z" fill="white"/>
<path d="M146.151 141.251C146.151 117.58 160.984 102.03 182.524 102.03C202.049 102.03 215.464 115.849 215.464 137.285C215.464 159.948 201.23 176.19 180.194 176.19C159.976 176.19 146.151 162.466 146.151 141.251ZM195.152 162.781C197.797 159.318 201.545 151.607 201.545 139.11C201.545 121.735 195.246 110.875 180.603 110.875C175.123 110.875 170.022 112.921 166.684 115.345C162.936 120.539 160.071 128.754 160.071 139.929C160.071 156.895 167.282 167.345 181.201 167.345C187.311 167.345 192.192 165.299 195.152 162.781Z" fill="white"/>
<path d="M233.887 166.936C234.202 165.205 234.485 153.023 234.485 147.955V129.667C234.485 123.372 234.485 112.921 233.572 111.883C232.564 110.655 227.998 109.459 224.723 108.641L225.825 103.573H252.341C264.339 103.573 273.975 103.384 282.005 102.754C282.73 103.667 283.926 105.493 284.43 106.311C283.706 111.19 282.289 118.997 281.596 123.687C279.675 123.781 275.613 123.592 273.471 123.183L271.33 111.001C268.086 110.592 263.52 110.498 259.332 110.498C255.269 110.498 251.616 110.592 248.247 110.687C248.058 112.827 247.648 125.103 247.648 130.202V137.82L270.322 136.907L272.054 139.047C271.739 140.779 271.235 143.926 270.826 145.752L247.648 145.028V148.585C247.648 154.691 247.554 165.236 248.562 166.464C249.79 167.691 256.183 168.604 260.654 169.612L259.552 174.679H225.856L224.754 169.612L233.887 166.936Z" fill="white"/>
<path d="M303.955 166.936C304.27 165.205 304.553 153.023 304.553 147.955V129.667C304.553 123.372 304.553 112.921 303.64 111.883C302.632 110.655 298.066 109.459 294.791 108.641L295.893 103.573H322.409C334.596 103.573 344.453 103.384 352.578 102.754C353.302 103.667 354.499 105.493 355.003 106.311C354.278 111.19 352.861 118.997 352.168 123.687C350.247 123.781 346.185 123.592 344.043 123.183L341.902 110.907C338.564 110.592 333.777 110.498 329.4 110.498C325.338 110.498 321.59 110.592 318.315 110.687C318.126 112.827 317.717 125.103 317.717 130.202V136.183L340.39 135.27L342.123 137.316C341.808 139.047 341.209 142.29 340.894 144.021L317.717 143.297V148.585C317.717 154.88 317.622 164.638 318.63 166.369C319.732 167.597 326.251 167.88 330.817 167.88C335.289 167.88 339.95 167.471 343.319 167.062L346.153 154.566C348.2 154.471 352.861 154.66 354.782 154.975C355.097 161.365 355.097 167.975 354.782 174.679H295.925L294.823 169.612L303.955 166.936Z" fill="white"/>
<path d="M415.686 164.292C416.41 161.333 417.512 157.272 418.74 151.607C420.472 151.512 426.046 151.701 427.778 152.016C428.093 155.887 428.093 162.686 428.093 166.432L426.771 169.171C421.071 173.042 411.938 176.19 401.577 176.19C379.817 176.19 366.118 162.466 366.118 139.929C366.118 117.076 382.588 102.03 403.404 102.03C412.757 102.03 420.472 104.58 427.085 107.916L428.503 110.655C427.684 115.943 426.361 123.151 425.448 128.219C423.621 128.314 419.055 128.219 417.008 127.81C416.095 121.703 414.961 116.226 414.457 113.393C411.623 111.757 407.435 110.749 402.774 110.749C396.885 110.749 391.689 112.26 388.131 114.81C383.47 120.381 380.195 128.628 380.195 139.079C380.195 156.045 388.54 166.999 402.963 166.999C408.978 167.03 413.229 166.023 415.686 164.292Z" fill="white"/>
<path d="M439.84 141.251C439.84 117.58 454.672 102.03 476.212 102.03C495.737 102.03 509.152 115.849 509.152 137.285C509.152 159.948 494.918 176.19 473.882 176.19C453.665 176.19 439.84 162.466 439.84 141.251ZM488.84 162.781C491.486 159.318 495.233 151.607 495.233 139.11C495.233 121.735 488.935 110.875 474.291 110.875C468.812 110.875 463.71 112.921 460.372 115.345C456.625 120.539 453.759 128.754 453.759 139.929C453.759 156.895 460.971 167.345 474.89 167.345C480.999 167.345 485.88 165.299 488.84 162.781Z" fill="white"/>
<path d="M12.8485 209.682C12.8485 212.987 10.3607 215.033 6.42424 215.033H3.43256V219.125H0V204.299H6.42424C10.3921 204.331 12.8485 206.377 12.8485 209.682ZM9.38442 209.682C9.38442 208.045 8.31372 207.101 6.23529 207.101H3.43256V212.232H6.23529C8.31372 212.263 9.38442 211.319 9.38442 209.682Z" fill="white"/>
<path d="M26.8624 219.125L23.9967 215.002H23.8393H20.8476V219.125H17.415V204.299H23.8393C27.8072 204.299 30.2635 206.345 30.2635 209.682C30.2635 211.917 29.1298 213.522 27.2089 214.372L30.5469 219.125H26.8624ZM23.6503 207.101H20.8476V212.263H23.6503C25.7602 212.263 26.7995 211.287 26.7995 209.682C26.7995 208.077 25.7288 207.101 23.6503 207.101Z" fill="white"/>
<path d="M34.168 211.728C34.168 207.321 37.6005 204.079 42.2927 204.079C46.9535 204.079 50.4175 207.321 50.4175 211.728C50.4175 216.166 46.9535 219.377 42.2927 219.377C37.6005 219.377 34.168 216.135 34.168 211.728ZM46.922 211.728C46.922 208.927 44.938 206.975 42.2927 206.975C39.6475 206.975 37.6635 208.895 37.6635 211.728C37.6635 214.529 39.6475 216.481 42.2927 216.481C44.938 216.481 46.922 214.529 46.922 211.728Z" fill="white"/>
<path d="M54.165 211.728C54.165 207.258 57.5976 204.079 62.2268 204.079C64.7776 204.079 66.919 205.023 68.3361 206.692L66.1317 208.738C65.124 207.605 63.8959 207.006 62.4158 207.006C59.6445 207.006 57.6606 208.958 57.6606 211.759C57.6606 214.561 59.6445 216.513 62.4158 216.513C63.8959 216.513 65.1555 215.914 66.1317 214.75L68.3361 216.796C66.9505 218.496 64.8091 219.44 62.2268 219.44C57.5976 219.377 54.165 216.198 54.165 211.728Z" fill="white"/>
<path d="M72.4932 212.609V204.299H75.9257V212.483C75.9257 215.285 77.1539 216.449 79.2323 216.449C81.3422 216.449 82.5389 215.285 82.5389 212.483V204.299H85.94V212.609C85.94 216.985 83.4522 219.377 79.2323 219.377C74.981 219.377 72.4932 216.985 72.4932 212.609Z" fill="white"/>
<path d="M100.866 219.125L98.0006 215.002H97.8432H94.8515V219.125H91.4189V204.299H97.8432C101.811 204.299 104.267 206.345 104.267 209.682C104.267 211.917 103.134 213.522 101.213 214.372L104.551 219.125H100.866ZM97.6542 207.101H94.8515V212.263H97.6542C99.7642 212.263 100.803 211.287 100.803 209.682C100.803 208.077 99.7327 207.101 97.6542 207.101Z" fill="white"/>
<path d="M118.88 215.946H111.983L110.661 219.125H107.134L113.747 204.299H117.148L123.761 219.125H120.171L118.88 215.946ZM117.778 213.365L115.416 207.699L113.054 213.365H117.778Z" fill="white"/>
<path d="M127.445 204.331H134.184C139.034 204.331 142.372 207.258 142.372 211.728C142.372 216.229 139.034 219.125 134.184 219.125H127.445V204.331ZM134.027 216.323C136.956 216.323 138.908 214.561 138.908 211.728C138.908 208.895 136.987 207.132 134.027 207.132H130.878V216.323H134.027Z" fill="white"/>
<path d="M146.938 212.609V204.299H150.371V212.483C150.371 215.285 151.599 216.449 153.678 216.449C155.788 216.449 156.984 215.285 156.984 212.483V204.299H160.385V212.609C160.385 216.985 157.897 219.377 153.678 219.377C149.426 219.377 146.938 216.985 146.938 212.609Z" fill="white"/>
<path d="M175.313 219.125L172.447 215.002H172.289H169.298V219.125H165.865V204.299H172.289C176.257 204.299 178.714 206.345 178.714 209.682C178.714 211.917 177.58 213.522 175.659 214.372L178.997 219.125H175.313ZM172.101 207.101H169.298V212.263H172.101C174.21 212.263 175.25 211.287 175.25 209.682C175.25 208.077 174.21 207.101 172.101 207.101Z" fill="white"/>
<path d="M186.208 200.05H189.767L185.925 203.103H183.343L186.208 200.05ZM183.563 204.331H186.996V219.156H183.563V204.331Z" fill="white"/>
<path d="M202.395 215.946H195.498L194.175 219.125H190.648L197.262 204.299H200.663L207.276 219.125H203.686L202.395 215.946ZM201.293 213.365L198.931 207.699L196.569 213.365H201.293Z" fill="white"/>
<path d="M222.518 207.069V210.972H229.383V213.711H222.518V219.093H219.085V204.268H230.296V207.006H222.518V207.069Z" fill="white"/>
<path d="M246.199 216.387V219.125H234.736V204.299H245.947V207.038H238.169V210.248H245.065V212.924H238.169V216.355H246.199V216.387Z" fill="white"/>
<path d="M251.081 204.331H257.82C262.67 204.331 266.008 207.258 266.008 211.728C266.008 216.229 262.67 219.125 257.82 219.125H251.081V204.331ZM257.631 216.323C260.56 216.323 262.512 214.561 262.512 211.728C262.512 208.895 260.591 207.132 257.631 207.132H254.482V216.323H257.631Z" fill="white"/>
<path d="M282.162 216.387V219.125H270.699V204.299H281.91V207.038H274.132V210.248H281.028V212.924H274.132V216.355H282.162V216.387Z" fill="white"/>
<path d="M296.459 219.125L293.593 215.002H293.436H290.444V219.125H287.012V204.299H293.436C297.404 204.299 299.86 206.345 299.86 209.682C299.86 211.917 298.727 213.522 296.806 214.372L300.144 219.125H296.459ZM293.247 207.101H290.444V212.263H293.247C295.357 212.263 296.396 211.287 296.396 209.682C296.396 208.077 295.325 207.101 293.247 207.101Z" fill="white"/>
<path d="M314.473 215.946H307.576L306.254 219.125H302.727L309.34 204.299H312.741L319.354 219.125H315.764L314.473 215.946ZM313.371 213.365L311.009 207.699L308.647 213.365H313.371Z" fill="white"/>
<path d="M323.038 204.331H326.471V216.355H333.903V219.156H323.038V204.331Z" fill="white"/>
<path d="M0 228.789H6.73915C11.5888 228.789 14.9269 231.716 14.9269 236.186C14.9269 240.687 11.5888 243.583 6.73915 243.583H0V228.789ZM6.5502 240.781C9.4789 240.781 11.4314 239.019 11.4314 236.186C11.4314 233.353 9.51039 231.59 6.5502 231.59H3.40107V240.781H6.5502Z" fill="white"/>
<path d="M31.082 240.844V243.583H19.6191V228.757H30.8301V231.495H23.0202V234.706H29.9168V237.382H23.0202V240.813H31.082V240.844Z" fill="white"/>
<path d="M35.9316 228.789H39.3642V240.813H46.7962V243.614H35.9316V228.789Z" fill="white"/>
<path d="M58.0391 236.186C58.0391 231.716 61.4716 228.537 66.1008 228.537C68.6516 228.537 70.7931 229.481 72.2102 231.149L70.0058 233.195C68.9981 232.062 67.7699 231.464 66.2898 231.464C63.5186 231.464 61.5346 233.416 61.5346 236.217C61.5346 239.018 63.5186 240.97 66.2898 240.97C67.7699 240.97 69.0295 240.372 70.0058 239.207L72.2102 241.253C70.8246 242.953 68.6831 243.897 66.1008 243.897C61.4716 243.834 58.0391 240.655 58.0391 236.186Z" fill="white"/>
<path d="M75.3584 236.186C75.3584 231.779 78.791 228.537 83.4832 228.537C88.1439 228.537 91.6079 231.779 91.6079 236.186C91.6079 240.624 88.1439 243.834 83.4832 243.834C78.791 243.834 75.3584 240.592 75.3584 236.186ZM88.1124 236.186C88.1124 233.384 86.1284 231.433 83.4832 231.433C80.8379 231.433 78.8539 233.353 78.8539 236.186C78.8539 238.987 80.8379 240.939 83.4832 240.939C86.1284 240.939 88.1124 238.987 88.1124 236.186Z" fill="white"/>
<path d="M109.874 228.789V243.614H107.071L99.6706 234.612V243.614H96.2695V228.789H99.1038L106.473 237.791V228.789H109.874Z" fill="white"/>
<path d="M114.345 242.135L115.51 239.554C116.77 240.466 118.628 241.096 120.391 241.096C122.438 241.096 123.257 240.403 123.257 239.522C123.257 236.752 114.628 238.641 114.628 233.164C114.628 230.646 116.675 228.537 120.863 228.537C122.721 228.537 124.642 228.977 125.997 229.859L124.926 232.471C123.54 231.684 122.123 231.307 120.832 231.307C118.785 231.307 118.029 232.062 118.029 233.006C118.029 235.745 126.658 233.856 126.658 239.302C126.658 241.788 124.611 243.897 120.36 243.897C118.029 243.834 115.667 243.142 114.345 242.135Z" fill="white"/>
<path d="M131.035 237.067V228.757H134.468V236.941C134.468 239.742 135.696 240.907 137.774 240.907C139.884 240.907 141.081 239.742 141.081 236.941V228.757H144.482V237.067C144.482 241.442 141.994 243.834 137.774 243.834C133.523 243.834 131.035 241.442 131.035 237.067Z" fill="white"/>
<path d="M163.44 243.583L163.409 234.706L159.032 242.04H157.489L153.143 234.895V243.583H149.931V228.757H152.765L158.307 237.98L163.787 228.757H166.59L166.621 243.583H163.44V243.583Z" fill="white"/>
<path d="M172.32 228.789H175.753V243.614H172.32V228.789Z" fill="white"/>
<path d="M181.391 228.789H188.13C192.979 228.789 196.318 231.716 196.318 236.186C196.318 240.687 192.979 243.583 188.13 243.583H181.391V228.789ZM187.941 240.781C190.87 240.781 192.822 239.019 192.822 236.186C192.822 233.353 190.901 231.59 187.941 231.59H184.792V240.781H187.941Z" fill="white"/>
<path d="M200.064 236.186C200.064 231.779 203.497 228.537 208.189 228.537C212.85 228.537 216.314 231.779 216.314 236.186C216.314 240.624 212.85 243.834 208.189 243.834C203.497 243.834 200.064 240.592 200.064 236.186ZM212.818 236.186C212.818 233.384 210.835 231.433 208.189 231.433C205.544 231.433 203.56 233.353 203.56 236.186C203.56 238.987 205.544 240.939 208.189 240.939C210.803 240.939 212.818 238.987 212.818 236.186Z" fill="white"/>
<path d="M230.422 243.583L227.556 239.459H227.399H224.407V243.583H220.975V228.757H227.399C231.367 228.757 233.823 230.803 233.823 234.139C233.823 236.374 232.689 237.98 230.768 238.829L234.107 243.583H230.422ZM227.21 231.558H224.407V236.721H227.21C229.32 236.721 230.359 235.745 230.359 234.139C230.359 232.534 229.32 231.558 227.21 231.558Z" fill="white"/>
</g>
<defs>
<clipPath id="clip0_7_3">
<rect width="1264" height="343" fill="white"/>
</clipPath>
</defs>
</svg>
