<svg width="56" height="56" viewBox="0 0 56 56" fill="none" xmlns="http://www.w3.org/2000/svg">
<g clip-path="url(#clip0_2033_414)">
<path d="M19.7163 8.14C17.5883 8.2404 16.1351 8.58 14.8647 9.0792C13.5499 9.5916 12.4355 10.2792 11.3267 11.392C10.2179 12.5048 9.53514 13.62 9.02634 14.9368C8.53394 16.21 8.20034 17.6644 8.10634 19.7936C8.01234 21.9228 7.99154 22.6072 8.00194 28.0384C8.01234 33.4696 8.03634 34.1504 8.13954 36.284C8.24114 38.4116 8.57954 39.8644 9.07874 41.1352C9.59194 42.45 10.2787 43.564 11.3919 44.6732C12.5051 45.7824 13.6195 46.4636 14.9395 46.9732C16.2115 47.4648 17.6663 47.8 19.7951 47.8932C21.9239 47.9864 22.6091 48.008 28.0387 47.9976C33.4683 47.9872 34.1519 47.9632 36.2851 47.862C38.4183 47.7608 39.8635 47.42 41.1347 46.9232C42.4495 46.4088 43.5643 45.7232 44.6727 44.6096C45.7811 43.496 46.4635 42.38 46.9719 41.0624C47.4647 39.7904 47.7995 38.3356 47.8919 36.2084C47.9851 34.0736 48.0071 33.392 47.9967 27.9616C47.9863 22.5312 47.9619 21.8504 47.8607 19.7176C47.7595 17.5848 47.4207 16.1364 46.9219 14.8648C46.4079 13.55 45.7219 12.4368 44.6091 11.3268C43.4963 10.2168 42.3795 9.5348 41.0623 9.0276C39.7895 8.5352 38.3355 8.1996 36.2067 8.1076C34.0779 8.0156 33.3927 7.992 27.9611 8.0024C22.5295 8.0128 21.8495 8.036 19.7163 8.14ZM19.9499 44.2952C17.9999 44.2104 16.9411 43.8864 16.2355 43.6152C15.3011 43.2552 14.6355 42.82 13.9323 42.1236C13.2291 41.4272 12.7971 40.7592 12.4323 39.8268C12.1583 39.1212 11.8283 38.0636 11.7371 36.1136C11.6379 34.006 11.6171 33.3732 11.6055 28.0336C11.5939 22.694 11.6143 22.062 11.7067 19.9536C11.7899 18.0052 12.1159 16.9452 12.3867 16.24C12.7467 15.3044 13.1803 14.64 13.8783 13.9372C14.5763 13.2344 15.2423 12.8016 16.1755 12.4368C16.8803 12.1616 17.9379 11.8344 19.8871 11.7416C21.9963 11.6416 22.6283 11.6216 27.9671 11.61C33.3059 11.5984 33.9395 11.6184 36.0495 11.7112C37.9979 11.796 39.0583 12.1188 39.7627 12.3912C40.6975 12.7512 41.3627 13.1836 42.0655 13.8828C42.7683 14.582 43.2015 15.2456 43.5663 16.1808C43.8419 16.8836 44.1691 17.9408 44.2611 19.8912C44.3615 22.0004 44.3843 22.6328 44.3939 27.9712C44.4035 33.3096 44.3847 33.9436 44.2923 36.0512C44.2071 38.0012 43.8839 39.0604 43.6123 39.7668C43.2523 40.7008 42.8183 41.3668 42.1199 42.0692C41.4215 42.7716 40.7563 43.2044 39.8227 43.5692C39.1187 43.844 38.0599 44.172 36.1123 44.2648C34.0031 44.364 33.3711 44.3848 28.0303 44.3964C22.6895 44.408 22.0595 44.3864 19.9503 44.2952M36.2543 17.3108C36.2551 17.7855 36.3967 18.2493 36.6611 18.6436C36.9255 19.0378 37.3009 19.3448 37.7398 19.5257C38.1787 19.7066 38.6614 19.7533 39.1268 19.6598C39.5922 19.5664 40.0194 19.337 40.3545 19.0007C40.6896 18.6645 40.9174 18.2364 41.0091 17.7706C41.1008 17.3048 41.0524 16.8223 40.8699 16.3841C40.6874 15.9459 40.379 15.5716 39.9838 15.3087C39.5886 15.0457 39.1243 14.9058 38.6495 14.9068C38.0132 14.9081 37.4033 15.162 36.9542 15.6129C36.505 16.0637 36.2533 16.6744 36.2543 17.3108ZM17.7303 28.02C17.7415 33.692 22.3479 38.2796 28.0187 38.2688C33.6895 38.258 38.2803 33.652 38.2695 27.98C38.2587 22.308 33.6511 17.7192 27.9795 17.7304C22.3079 17.7416 17.7195 22.3488 17.7303 28.02ZM21.3327 28.0128C21.3301 26.6942 21.7186 25.4045 22.449 24.3067C23.1794 23.2089 24.2189 22.3524 25.4361 21.8454C26.6533 21.3383 27.9935 21.2037 29.2872 21.4584C30.5809 21.713 31.7701 22.3456 32.7043 23.2761C33.6385 24.2067 34.2758 25.3933 34.5356 26.686C34.7954 27.9788 34.6661 29.3195 34.1639 30.5387C33.6617 31.7579 32.8093 32.8008 31.7144 33.5355C30.6195 34.2702 29.3313 34.6638 28.0127 34.6664C27.1372 34.6682 26.2699 34.4976 25.4603 34.1642C24.6508 33.8308 23.9148 33.3412 23.2945 32.7233C22.6742 32.1054 22.1817 31.3714 21.8451 30.5632C21.5085 29.755 21.3344 28.8883 21.3327 28.0128Z" fill="white"/>
</g>
<defs>
<clipPath id="clip0_2033_414">
<rect width="40" height="40" fill="white" transform="translate(7.99951 8)"/>
</clipPath>
</defs>
</svg>
